<svg xmlns="http://www.w3.org/2000/svg" viewBox="0 0 32 32" fill="none">
  <circle cx="16" cy="16" r="15" fill="#1E40AF"/>
  <path d="M14.5 6v2.2c-2.8.4-4.5 2-4.5 4.1 0 2.4 1.8 3.6 4.5 4.3v5.2c-1.8-.3-3.2-1.2-4-2.4l-1.8 1.8c1.2 1.7 3.2 2.8 5.8 3.1V26h3v-1.8c2.9-.4 4.8-2.1 4.8-4.4 0-2.5-1.9-3.7-4.8-4.4v-4.8c1.5.3 2.7 1 3.5 2l1.8-1.8c-1.1-1.4-2.9-2.4-5.3-2.7V6h-3z" fill="white"/>
  <path d="M14.5 12.5c-1.4-.5-2.2-1-2.2-2 0-1.1.9-1.8 2.2-2v4z" fill="#1E40AF"/>
  <path d="M17.5 21.8c1.5-.2 2.4-1 2.4-2.2 0-1.1-.8-1.7-2.4-2.2v4.4z" fill="#1E40AF"/>
  <path d="M16 1A15 15 0 0 1 30.4 20" stroke="#DC2626" stroke-width="2" fill="none" stroke-linecap="round"/>
</svg>
